<svg width="24" height="24" viewBox="0 0 24 24" fill="none" xmlns="http://www.w3.org/2000/svg">
<path fill-rule="evenodd" clip-rule="evenodd" d="M8.25 21C7.00736 21 6 19.9926 6 18.75C6 17.5074 7.00736 16.5 8.25 16.5C9.49264 16.5 10.5 17.5074 10.5 18.75C10.5 19.9926 9.49264 21 8.25 21ZM8.25 18C7.83579 18 7.5 18.3358 7.5 18.75C7.5 19.1642 7.83579 19.5 8.25 19.5C8.66421 19.5 9 19.1642 9 18.75C9 18.3358 8.66421 18 8.25 18Z" fill="#009FE3"/>
<path fill-rule="evenodd" clip-rule="evenodd" d="M17.25 21C16.0074 21 15 19.9926 15 18.75C15 17.5074 16.0074 16.5 17.25 16.5C18.4926 16.5 19.5 17.5074 19.5 18.75C19.5 19.9926 18.4926 21 17.25 21ZM17.25 18C16.8358 18 16.5 18.3358 16.5 18.75C16.5 19.1642 16.8358 19.5 17.25 19.5C17.6642 19.5 18 19.1642 18 18.75C18 18.3358 17.6642 18 17.25 18Z" fill="#009FE3"/>
<path fill-rule="evenodd" clip-rule="evenodd" d="M18.75 15.7501H6.75C6.37106 15.7533 6.04925 15.4733 6 15.0976L4.59 4.50005H3.75C3.33579 4.50005 3 4.16427 3 3.75005C3 3.33584 3.33579 3.00003 3.75 3.00003H5.25C5.62894 2.99684 5.95075 3.27681 6 3.65255L6.3075 6.00005H20.25C20.4731 5.99969 20.6847 6.09865 20.8275 6.27005C20.9685 6.44163 21.0261 6.66685 20.985 6.88505L19.485 15.1351C19.42 15.4903 19.1111 15.7487 18.75 15.7501ZM7.41 14.2501H18.1275L19.35 7.50005H6.51L7.41 14.2501Z" fill="#009FE3"/>
</svg>
